<svg width="1130" height="373" viewBox="0 0 1130 373" fill="none" xmlns="http://www.w3.org/2000/svg">
  <path d="M3.21179 364.995V8.61555H95.2643C118.127 8.61555 138.182 16.0826 155.429 31.0166C172.677 45.9506 186.114 66.6546 195.74 93.1285C205.366 119.602 210.18 150.828 210.18 186.805C210.18 222.443 205.366 253.669 195.74 280.482C186.114 306.956 172.677 327.66 155.429 342.594C138.182 357.528 118.127 364.995 95.2643 364.995H3.21179ZM42.3191 308.993H93.4594C109.303 308.993 122.94 303.902 134.372 293.719C146.004 283.537 154.928 269.282 161.145 250.954C167.563 232.626 170.771 211.243 170.771 186.805C170.771 162.029 167.563 140.646 161.145 122.657C154.928 104.329 146.004 90.0738 134.372 79.8915C122.94 69.7092 109.303 64.6181 93.4594 64.6181H42.3191V308.993Z" fill="#CAD1FF" fill-opacity="0.2" />
  <path d="M251.745 364.995V8.61555H338.383C357.034 8.61555 372.978 13.7067 386.214 23.889C399.651 34.0713 409.979 48.6659 417.199 67.6728C424.419 86.6797 428.029 109.25 428.029 135.385C428.029 161.519 424.419 184.09 417.199 203.097C409.979 221.765 399.651 236.19 386.214 246.372C372.978 256.215 357.034 261.136 338.383 261.136H273.405L290.852 231.098V364.995H251.745ZM389.523 364.995L336.277 235.68H378.092L431.639 364.995H389.523ZM290.852 238.226L273.405 206.661H336.578C353.825 206.661 366.761 200.382 375.384 187.824C384.209 175.266 388.621 157.786 388.621 135.385C388.621 112.645 384.209 95.165 375.384 82.9462C366.761 70.7275 353.825 64.6181 336.578 64.6181H273.405L290.852 32.0348V238.226Z" fill="#CAD1FF" fill-opacity="0.2" />
  <path d="M570.453 370.087C554.008 370.087 538.866 365.505 525.029 356.34C511.191 347.176 499.158 334.449 488.929 318.157C478.701 301.526 470.78 282.18 465.164 260.118C459.549 237.717 456.741 213.279 456.741 186.805C456.741 160.332 459.549 136.064 465.164 114.002C470.78 91.6012 478.701 72.2548 488.929 55.9632C499.158 39.3321 511.191 26.4346 525.029 17.2705C538.866 8.10644 553.908 3.52441 570.152 3.52441C586.597 3.52441 601.639 8.10644 615.276 17.2705C629.114 26.4346 641.147 39.3321 651.375 55.9632C661.603 72.2548 669.525 91.6012 675.14 114.002C680.756 136.064 683.563 160.332 683.563 186.805C683.563 213.279 680.756 237.717 675.14 260.118C669.525 282.519 661.603 301.865 651.375 318.157C641.147 334.449 629.114 347.176 615.276 356.34C601.639 365.505 586.698 370.087 570.453 370.087ZM570.152 312.048C580.781 312.048 590.608 308.993 599.633 302.883C608.658 296.774 616.479 288.119 623.097 276.919C629.716 265.379 634.83 252.142 638.44 237.208C642.25 221.934 644.155 205.134 644.155 186.805C644.155 168.477 642.25 151.846 638.44 136.912C634.83 121.639 629.716 108.402 623.097 97.2014C616.479 85.6615 608.658 76.8369 599.633 70.7275C590.608 64.6181 580.781 61.5634 570.152 61.5634C559.523 61.5634 549.696 64.6181 540.671 70.7275C531.847 76.8369 524.026 85.6615 517.207 97.2014C510.589 108.402 505.375 121.639 501.564 136.912C497.954 151.846 496.149 168.477 496.149 186.805C496.149 204.794 497.954 221.425 501.564 236.699C505.375 251.972 510.589 265.379 517.207 276.919C523.825 288.119 531.647 296.774 540.671 302.883C549.696 308.993 559.523 312.048 570.152 312.048Z" fill="#CAD1FF" fill-opacity="0.2" />
  <path d="M725.016 364.995V8.61555H757.204L889.267 283.028H873.323V8.61555H912.129V364.995H879.941L747.879 90.5829H763.823V364.995H725.016Z" fill="#CAD1FF" fill-opacity="0.2" />
  <path d="M1004.65 156.768H1109.34V211.243H1004.65V156.768ZM1007.66 309.502H1126.49V364.995H968.555V8.61555H1122.28V64.109H1007.66V309.502Z" fill="#CAD1FF" fill-opacity="0.2" />
  <path d="M570.152 2.16309C586.867 2.16309 602.173 6.8257 616.035 16.1406H616.034C630.058 25.4292 642.217 38.4772 652.527 55.2393C662.845 71.6736 670.817 91.158 676.461 113.671H676.46C682.107 135.857 684.925 160.238 684.925 186.806C684.925 213.375 682.107 237.926 676.461 260.449C670.817 282.962 662.846 302.446 652.528 318.881C642.213 335.311 630.05 348.189 616.027 357.476L616.026 357.475C602.169 366.784 586.968 371.447 570.453 371.447C553.738 371.447 538.336 366.786 524.277 357.476C510.254 348.189 498.092 335.31 487.777 318.881L487.77 318.87C477.46 302.105 469.489 282.626 463.846 260.453L463.844 260.449C458.197 237.926 455.38 213.375 455.38 186.806C455.38 160.238 458.197 135.857 463.844 113.671C469.487 91.158 477.46 71.6736 487.777 55.2393C498.089 38.4744 510.251 25.4246 524.277 16.1357C538.333 6.82758 553.634 2.16309 570.152 2.16309ZM95.2645 7.25488C118.454 7.25493 138.825 14.8388 156.32 29.9873C173.779 45.1048 187.332 66.0219 197.019 92.6631C206.713 119.321 211.541 150.712 211.541 186.806C211.541 222.563 206.712 253.95 197.021 280.942L197.019 280.947C187.332 307.589 173.779 328.506 156.32 343.623C138.825 358.772 118.454 366.356 95.2645 366.356H1.85046V7.25488H95.2645ZM338.383 7.25488C357.293 7.25488 373.536 12.422 387.036 22.8047L387.675 23.293C401.041 33.6338 411.294 48.2931 418.472 67.1895C425.764 86.3878 429.39 109.13 429.39 135.385C429.39 161.639 425.764 184.382 418.472 203.58L418.469 203.588C411.175 222.446 400.709 237.095 387.036 247.456L387.026 247.464C386.369 247.952 385.706 248.428 385.036 248.893L432.896 364.475L433.676 366.356H388.611L388.265 365.514L345.738 262.234C343.333 262.409 340.881 262.497 338.383 262.497H292.214V366.356H250.385V7.25488H338.383ZM758.059 7.25488L758.431 8.02539L871.962 243.931V7.25488H913.49V366.356H879.086L878.715 365.586L765.183 129.679V366.356H723.655V7.25488H758.059ZM1123.64 7.25488V65.4697H1009.02V155.407H1110.7V212.604H1009.02V308.141H1127.85V366.356H967.194V7.25488H1123.64ZM570.152 62.9248C559.807 62.9248 550.249 65.891 541.446 71.8467L540.64 72.4141C532.338 78.3635 524.911 86.8387 518.379 97.8936C511.84 108.96 506.67 122.07 502.885 137.242C499.306 152.051 497.511 168.569 497.511 186.806C497.511 204.697 499.305 221.216 502.885 236.369L503.244 237.786C506.993 252.364 512.042 265.173 518.379 276.227L518.995 277.256C525.396 287.815 532.882 295.967 541.434 301.757C550.24 307.718 559.802 310.687 570.152 310.687C580.502 310.687 590.064 307.718 598.87 301.757C607.699 295.78 615.39 287.287 621.926 276.227C628.467 264.818 633.534 251.709 637.117 236.888L637.119 236.878L637.468 235.453C641.015 220.684 642.794 204.47 642.794 186.806C642.794 168.57 640.899 152.055 637.121 137.249L637.115 137.226C633.531 122.059 628.461 108.955 621.926 97.8936L621.921 97.8857L621.917 97.8789C615.379 86.4798 607.689 77.8248 598.87 71.8545C590.064 65.8936 580.502 62.9248 570.152 62.9248ZM43.6805 307.632H93.4598C108.982 307.632 122.294 302.655 133.467 292.703L133.475 292.695C144.887 282.706 153.697 268.674 159.856 250.517L159.86 250.504C166.216 232.352 169.41 211.128 169.41 186.806C169.41 162.141 166.215 140.92 159.863 123.114L159.859 123.104L159.856 123.095C153.697 104.937 144.887 90.9055 133.475 80.916L133.467 80.9082C122.294 70.9564 108.982 65.9796 93.4598 65.9795H43.6805V307.632ZM292.214 205.3H336.578C353.446 205.3 365.929 199.189 374.263 187.054L374.266 187.047L374.27 187.041C382.875 174.795 387.26 157.628 387.26 135.385C387.26 112.793 382.872 95.639 374.281 83.7432L374.276 83.7373L374.272 83.7314C365.946 71.9334 353.461 65.9795 336.578 65.9795H292.214V205.3Z" stroke="#D4DAFD" stroke-opacity="0.2" stroke-width="2.722" />
</svg>